<?xml version="1.0" encoding="utf-8"?>
<!-- Generator: Adobe Illustrator 22.0.0, SVG Export Plug-In . SVG Version: 6.00 Build 0)  -->
<svg version="1.1" id="Layer_1" xmlns="http://www.w3.org/2000/svg" xmlns:xlink="http://www.w3.org/1999/xlink" x="0px" y="0px"
	 viewBox="0 0 510.3 41.5" style="enable-background:new 0 0 510.3 41.5;" xml:space="preserve">
<style type="text/css">
	.st0{fill:#FFA09B;}
</style>
<g>
	<path class="st0" d="M104.7,21.3c0-0.4-1.5-0.7,0.8-1.1c1.8-0.3,3.5-0.4,5.1-0.5c1.7-0.1,3.3-0.1,4.9-0.1c3.2,0.1,6.5,0.1,10.1-0.2
		c0.2-0.2,0.3-0.4,0.5-0.7c2.8,0.1,5.6,0.2,8.5,0.3c1.4,0,2.9,0.1,4.3,0.2c1.5,0.1,2.9,0.2,4.4,0.3l4.1,0l4,0.1
		c2.7,0.1,5.4,0.2,8.1,0.3c5.4,0.4,10.7,0.7,16.1,1.3c-0.2-0.3-0.4-0.5,0.7-0.5c4.5,0.3,10.5,1.5,16.9,2.7c0.9,0.1,1.9,0.3,2.8,0.4
		c0.8,0,1-0.2,1.1-0.3c2.9,0.6,5.4,1.1,7.8,1.7c15.9,2.5,32.2,5.5,49.2,7.2c17,1.7,34.4,2.1,52.3,2.1c7.6-0.3,15.2-0.7,22.5-0.8
		c10.8-0.1,24.7,0.1,35.3-0.6c-0.4-0.5,0.8-1.2,2.9-1.8c2.1-0.6,4.9-1.3,7.6-2.1c5.5-1.4,10.3-3.1,7.7-3.9c6.9-0.8,17.1-3,17.4-3.8
		c0.3-0.6,0.8-1.2,1.6-1.9c0.9-0.7,2.1-1.5,3.7-2.5c1.7-1,3.9-2,6.6-3.3c2.7-1.4,6.1-2.8,10-4.8c3.2-1.3,7.1-3.1,10.6-4.6
		c3.4-1.7,6.3-3.2,7.2-3.9c0.8-0.7,0.6-0.7,0-0.6C439.1,0.3,438,0.6,437,1c-2.1,0.8-4.2,1.5-2.7,0.3c-2.7,1.6-5.6,2.7-8.4,4.1
		c-1.4,0.7-2.9,1.2-4.3,1.8l-4.4,1.7l-4.5,1.5c-1.5,0.5-3,1-4.5,1.4c-3,0.8-6,1.8-9.1,2.4c-12.3,2.9-24.9,4.6-37.7,5.5
		c-12.8,0.9-25.9,1-39.1,0.8c-6.6-0.1-13.3-0.3-19.9-0.6c-6.7-0.3-13.3-0.6-20-1.1c-4.5-0.1-15.6-0.7-29.9-2.7
		c-7.1-1-15.1-2.4-23.7-4.1c-8.6-1.7-17.7-3.6-27.1-5.3c-4.7-0.9-9.5-1.7-14.2-2.4c-1.2-0.2-2.4-0.3-3.6-0.5
		c-1.2-0.1-2.4-0.3-3.6-0.4c-2.4-0.3-4.8-0.6-7.1-0.9c-2.4-0.3-4.7-0.4-7-0.6c-2.3-0.2-4.6-0.4-6.9-0.5c-2.3-0.1-4.5-0.2-6.7-0.3
		c-2.2-0.1-4.4-0.2-6.5-0.2c-17-0.4-31.2,0.5-39.4,1.1c-1,0.1-2,0.2-3,0.3c-1.1,0.1-2.3,0.2-3.4,0.3c-1.1,0.1-2.3,0.3-3.5,0.4
		c-2.3,0.3-4.7,0.6-7.1,0.8c-2.4,0.3-4.8,0.7-7.2,1.1c-2.4,0.4-4.8,0.7-7.1,1.2c-9.4,1.8-18.4,3.8-25.7,6c-3.3,1.1-6.6,2.1-10,3.3
		c-3.3,1.2-6.6,2.4-9.9,3.6c3.2-0.5,6.2-0.9,8.8-1.2c-3.4,0.9-6.9,1.7-9.8,2.6c-2.9,0.9-5.2,1.6-6.4,2.2c-3.6,1.3-5.7,2.2-6.8,2.8
		c-1.1,0.6-1.2,0.9-0.6,1.1C16.4,26.5,20,26,23,26c4.2-0.5-0.9,2.1,5.5,1c-4.5,1.3-6.7,1.8-11.2,3.2c-0.2,0.4,3.2-0.8,6.3-1.7
		c3.1-0.9,5.9-1.7,4.5-0.8c-2.2,0.5-4.5,1.2-6.7,1.9c-2.3,0.8-4.5,1.6-6.8,2.3c0.9,0.2,4.8-1,8.4-1.9c3.6-1,6.9-1.8,6.7-1.3
		c-1.2,0.4-4.4,1.1-7.4,1.7c-3,0.7-5.7,1.5-6,2.2c-0.1,0.3,4.3-1.1,6.6-1.7c-3.4,1.1-6.4,2.2-8.8,3.1c-2.4,0.9-4.1,1.7-5.1,2.2
		C8.1,36.7,8,37,8.9,37c0.5,0,1.2-0.1,2.2-0.3c1-0.2,2.3-0.4,3.9-0.8c-1.1,0.3-2.3,0.7-3.5,1c-1.3,0.4-2.6,0.8-3.9,1.1
		c-2.6,0.8-5.3,1.6-7.5,2.4c0,0,0,0,0,0c2.3-0.7,6.2-1.8,8.3-2.5c-2.6,0.8-5.1,1.7-7.7,2.6c0.5,0,1,0,1.5,0C4.1,40,6,39.5,8,38.8
		c-1.7,0.6-3.4,1.1-5.1,1.7c1.4-0.1,3-0.3,4.7-0.5c1.6-0.3,3.1-0.7,4.6-1c1.5-0.3,3-0.5,4.3-0.8c2.7-0.5,5.1-1,6.7-1.5
		C50,29.3,77.3,23.9,104.7,21.3z"/>
</g>
</svg>
